<svg width="455" height="218" viewBox="0 0 455 218" fill="none" xmlns="http://www.w3.org/2000/svg">
<g clip-path="url(#clip0_2005_29)">
<path d="M125.083 37.842C71.876 35.977 17.736 65.814 0 78.868C7.468 76.071 28.004 69.544 51.34 61.152C77.477 53.693 108.281 48.099 141.885 50.896C175.49 53.693 192.292 61.152 244.566 65.814C308.974 69.544 356.58 49.963 337.911 54.625C319.242 59.287 272.569 62.085 236.165 56.49C190.425 48.099 178.29 39.707 125.083 37.842Z" fill="url(#paint0_linear_2005_29)"/>
<path d="M259.501 0.546004C219.362 -4.116 181.712 22.302 169.889 32.248C175.801 30.072 191.358 23.856 214.695 17.33C238.031 10.803 274.436 13.986 295.905 22.378C339.778 38.228 356.58 47.166 378.049 47.166C399.519 45.687 406.987 34.734 408.854 30.383L450.859 22.924L399.519 21.059C398.586 26.032 392.985 35.791 378.049 35.045C363.114 34.299 342.578 24.35 333.244 21.059C317.375 15.465 299.639 5.208 259.501 0.546004Z" fill="url(#paint1_linear_2005_29)"/>
<path d="M414.861 44.453C370.802 70.56 313.737 75.844 290.711 75.222C299.424 76.465 306.58 79.884 346.719 77.087C386.857 74.29 399.926 67.763 414.861 63.101C434.277 66.085 449.71 72.425 455 75.222C445.043 66.831 423.076 48.928 414.861 44.453Z" fill="url(#paint2_linear_2005_29)"/>
<path d="M0 207.305H98.329" stroke="white" stroke-width="4.10715"/>
<path d="M356.265 207.305H454.594" stroke="white" stroke-width="4.10715"/>
<path d="M57.51 164.905H0V107.547H57.51V115.747H7.95V156.706H57.51V164.905ZM50.763 140.346H11.906V132.146H50.763V140.346Z" fill="white"/>
<path d="M102.984 164.905H95.035V115.747H66.92V107.547H131.099V115.747H102.984V164.905Z" fill="white"/>
<path d="M230.336 164.905H222.386V148.506H178.022V140.346H222.386V115.747H193.883C191.169 115.747 188.609 116.293 186.205 117.387C183.8 118.453 181.706 119.92 179.923 121.787C178.139 123.627 176.717 125.787 175.657 128.266C174.623 130.746 174.106 133.4 174.106 136.226V164.905H166.156V136.226C166.156 133.586 166.479 131.053 167.125 128.626C167.798 126.173 168.728 123.893 169.917 121.787C171.133 119.653 172.58 117.72 174.261 115.987C175.967 114.227 177.841 112.72 179.884 111.467C181.952 110.214 184.162 109.254 186.515 108.587C188.868 107.894 191.324 107.547 193.883 107.547H230.336V164.905Z" fill="white"/>
<path d="M303.241 107.547L303.163 136.226C303.163 138.893 302.827 141.453 302.155 143.906C301.509 146.333 300.578 148.613 299.363 150.746C298.174 152.852 296.726 154.786 295.02 156.546C293.339 158.279 291.465 159.772 289.397 161.026C287.354 162.252 285.157 163.212 282.804 163.906C280.452 164.572 277.995 164.905 275.436 164.905H269.58C267.021 164.905 264.552 164.572 262.174 163.906C259.821 163.212 257.611 162.239 255.542 160.986C253.5 159.732 251.638 158.239 249.958 156.506C248.278 154.746 246.83 152.812 245.615 150.706C244.425 148.573 243.495 146.293 242.823 143.866C242.176 141.413 241.853 138.866 241.853 136.226V107.547H249.803V136.226C249.803 139.053 250.32 141.719 251.354 144.226C252.388 146.706 253.797 148.879 255.581 150.746C257.391 152.586 259.498 154.039 261.902 155.106C264.306 156.172 266.866 156.706 269.58 156.706H275.436C278.176 156.706 280.749 156.172 283.153 155.106C285.557 154.039 287.652 152.586 289.435 150.746C291.219 148.879 292.628 146.706 293.662 144.226C294.696 141.719 295.214 139.053 295.214 136.226V107.547H303.241Z" fill="white"/>
<path d="M348.5 164.905H340.55V115.747H312.435V107.547H376.615V115.747H348.5V164.905Z" fill="white"/>
<path d="M453.169 136.226C453.169 140.199 452.561 143.933 451.346 147.426C450.131 150.919 448.399 153.959 446.15 156.546C443.926 159.132 441.251 161.172 438.122 162.666C434.994 164.159 431.517 164.905 427.691 164.905H409.193C405.341 164.905 401.838 164.159 398.684 162.666C395.53 161.172 392.828 159.132 390.579 156.546C388.356 153.959 386.636 150.919 385.421 147.426C384.206 143.933 383.599 140.199 383.599 136.226C383.599 132.28 384.206 128.573 385.421 125.107C386.636 121.613 388.356 118.573 390.579 115.987C392.828 113.374 395.53 111.32 398.684 109.827C401.838 108.307 405.341 107.547 409.193 107.547H427.691C431.517 107.547 434.994 108.307 438.122 109.827C441.251 111.32 443.926 113.374 446.15 115.987C448.399 118.573 450.131 121.613 451.346 125.107C452.561 128.573 453.169 132.28 453.169 136.226ZM445.219 136.226C445.219 133.4 444.818 130.746 444.017 128.266C443.215 125.787 442.052 123.627 440.527 121.787C439.027 119.92 437.192 118.453 435.02 117.387C432.874 116.293 430.431 115.747 427.691 115.747H409.193C406.453 115.747 403.984 116.293 401.786 117.387C399.615 118.453 397.766 119.92 396.241 121.787C394.741 123.627 393.578 125.787 392.751 128.266C391.949 130.746 391.548 133.4 391.548 136.226C391.548 139.053 391.949 141.719 392.751 144.226C393.578 146.706 394.741 148.879 396.241 150.746C397.766 152.586 399.615 154.039 401.786 155.106C403.984 156.172 406.453 156.706 409.193 156.706H427.691C430.431 156.706 432.874 156.172 435.02 155.106C437.192 154.039 439.027 152.586 440.527 150.746C442.052 148.879 443.215 146.706 444.017 144.226C444.818 141.719 445.219 139.053 445.219 136.226Z" fill="white"/>
<mask id="mask0_2005_29" style="mask-type:luminance" maskUnits="userSpaceOnUse" x="-2" y="105" width="457" height="62">
<path d="M455 105.547H-2V166.547H455V105.547Z" fill="white"/>
<path d="M57.51 164.905H0V107.547H57.51V115.747H7.95V156.706H57.51V164.905ZM50.763 140.346H11.906V132.146H50.763V140.346Z" fill="black"/>
<path d="M102.984 164.905H95.035V115.747H66.92V107.547H131.099V115.747H102.984V164.905Z" fill="black"/>
<path d="M230.336 164.905H222.386V148.506H178.022V140.346H222.386V115.747H193.883C191.169 115.747 188.609 116.293 186.205 117.387C183.8 118.453 181.706 119.92 179.923 121.787C178.139 123.627 176.717 125.787 175.657 128.266C174.623 130.746 174.106 133.4 174.106 136.226V164.905H166.156V136.226C166.156 133.586 166.479 131.053 167.125 128.626C167.798 126.173 168.728 123.893 169.917 121.787C171.133 119.653 172.58 117.72 174.261 115.987C175.967 114.227 177.841 112.72 179.884 111.467C181.952 110.214 184.162 109.254 186.515 108.587C188.868 107.894 191.324 107.547 193.883 107.547H230.336V164.905Z" fill="black"/>
<path d="M303.241 107.547L303.163 136.226C303.163 138.893 302.827 141.453 302.155 143.906C301.509 146.333 300.578 148.613 299.363 150.746C298.174 152.852 296.726 154.786 295.02 156.546C293.339 158.279 291.465 159.772 289.397 161.026C287.354 162.252 285.157 163.212 282.804 163.906C280.452 164.572 277.995 164.905 275.436 164.905H269.58C267.021 164.905 264.552 164.572 262.174 163.906C259.821 163.212 257.611 162.239 255.542 160.986C253.5 159.732 251.638 158.239 249.958 156.506C248.278 154.746 246.83 152.812 245.615 150.706C244.425 148.573 243.495 146.293 242.823 143.866C242.176 141.413 241.853 138.866 241.853 136.226V107.547H249.803V136.226C249.803 139.053 250.32 141.719 251.354 144.226C252.388 146.706 253.797 148.879 255.581 150.746C257.391 152.586 259.498 154.039 261.902 155.106C264.306 156.172 266.866 156.706 269.58 156.706H275.436C278.176 156.706 280.749 156.172 283.153 155.106C285.557 154.039 287.652 152.586 289.435 150.746C291.219 148.879 292.628 146.706 293.662 144.226C294.696 141.719 295.214 139.053 295.214 136.226V107.547H303.241Z" fill="black"/>
<path d="M348.5 164.905H340.55V115.747H312.435V107.547H376.615V115.747H348.5V164.905Z" fill="black"/>
<path d="M453.169 136.226C453.169 140.199 452.561 143.933 451.346 147.426C450.131 150.919 448.399 153.959 446.15 156.546C443.926 159.132 441.251 161.172 438.122 162.666C434.994 164.159 431.517 164.905 427.691 164.905H409.193C405.341 164.905 401.838 164.159 398.684 162.666C395.53 161.172 392.828 159.132 390.579 156.546C388.356 153.959 386.636 150.919 385.421 147.426C384.206 143.933 383.599 140.199 383.599 136.226C383.599 132.28 384.206 128.573 385.421 125.107C386.636 121.613 388.356 118.573 390.579 115.987C392.828 113.374 395.53 111.32 398.684 109.827C401.838 108.307 405.341 107.547 409.193 107.547H427.691C431.517 107.547 434.994 108.307 438.122 109.827C441.251 111.32 443.926 113.374 446.15 115.987C448.399 118.573 450.131 121.613 451.346 125.107C452.561 128.573 453.169 132.28 453.169 136.226ZM445.219 136.226C445.219 133.4 444.818 130.746 444.017 128.266C443.215 125.787 442.052 123.627 440.527 121.787C439.027 119.92 437.192 118.453 435.02 117.387C432.874 116.293 430.431 115.747 427.691 115.747H409.193C406.453 115.747 403.984 116.293 401.786 117.387C399.615 118.453 397.766 119.92 396.241 121.787C394.741 123.627 393.578 125.787 392.751 128.266C391.949 130.746 391.548 133.4 391.548 136.226C391.548 139.053 391.949 141.719 392.751 144.226C393.578 146.706 394.741 148.879 396.241 150.746C397.766 152.586 399.615 154.039 401.786 155.106C403.984 156.172 406.453 156.706 409.193 156.706H427.691C430.431 156.706 432.874 156.172 435.02 155.106C437.192 154.039 439.027 152.586 440.527 150.746C442.052 148.879 443.215 146.706 444.017 144.226C444.818 141.719 445.219 139.053 445.219 136.226Z" fill="black"/>
</mask>
<g mask="url(#mask0_2005_29)">
<path d="M57.51 164.905H0V107.547H57.51V115.747H7.95V156.706H57.51V164.905ZM50.763 140.346H11.906V132.146H50.763V140.346Z" stroke="white" stroke-width="2.7381"/>
</g>
<mask id="mask1_2005_29" style="mask-type:luminance" maskUnits="userSpaceOnUse" x="-2" y="105" width="457" height="62">
<path d="M455 105.547H-2V166.547H455V105.547Z" fill="white"/>
<path d="M57.51 164.905H0V107.547H57.51V115.747H7.95V156.706H57.51V164.905ZM50.763 140.346H11.906V132.146H50.763V140.346Z" fill="black"/>
<path d="M102.984 164.905H95.035V115.747H66.92V107.547H131.099V115.747H102.984V164.905Z" fill="black"/>
<path d="M230.336 164.905H222.386V148.506H178.022V140.346H222.386V115.747H193.883C191.169 115.747 188.609 116.293 186.205 117.387C183.8 118.453 181.706 119.92 179.923 121.787C178.139 123.627 176.717 125.787 175.657 128.266C174.623 130.746 174.106 133.4 174.106 136.226V164.905H166.156V136.226C166.156 133.586 166.479 131.053 167.125 128.626C167.798 126.173 168.728 123.893 169.917 121.787C171.133 119.653 172.58 117.72 174.261 115.987C175.967 114.227 177.841 112.72 179.884 111.467C181.952 110.214 184.162 109.254 186.515 108.587C188.868 107.894 191.324 107.547 193.883 107.547H230.336V164.905Z" fill="black"/>
<path d="M303.241 107.547L303.163 136.226C303.163 138.893 302.827 141.453 302.155 143.906C301.509 146.333 300.578 148.613 299.363 150.746C298.174 152.852 296.726 154.786 295.02 156.546C293.339 158.279 291.465 159.772 289.397 161.026C287.354 162.252 285.157 163.212 282.804 163.906C280.452 164.572 277.995 164.905 275.436 164.905H269.58C267.021 164.905 264.552 164.572 262.174 163.906C259.821 163.212 257.611 162.239 255.542 160.986C253.5 159.732 251.638 158.239 249.958 156.506C248.278 154.746 246.83 152.812 245.615 150.706C244.425 148.573 243.495 146.293 242.823 143.866C242.176 141.413 241.853 138.866 241.853 136.226V107.547H249.803V136.226C249.803 139.053 250.32 141.719 251.354 144.226C252.388 146.706 253.797 148.879 255.581 150.746C257.391 152.586 259.498 154.039 261.902 155.106C264.306 156.172 266.866 156.706 269.58 156.706H275.436C278.176 156.706 280.749 156.172 283.153 155.106C285.557 154.039 287.652 152.586 289.435 150.746C291.219 148.879 292.628 146.706 293.662 144.226C294.696 141.719 295.214 139.053 295.214 136.226V107.547H303.241Z" fill="black"/>
<path d="M348.5 164.905H340.55V115.747H312.435V107.547H376.615V115.747H348.5V164.905Z" fill="black"/>
<path d="M453.169 136.226C453.169 140.199 452.561 143.933 451.346 147.426C450.131 150.919 448.399 153.959 446.15 156.546C443.926 159.132 441.251 161.172 438.122 162.666C434.994 164.159 431.517 164.905 427.691 164.905H409.193C405.341 164.905 401.838 164.159 398.684 162.666C395.53 161.172 392.828 159.132 390.579 156.546C388.356 153.959 386.636 150.919 385.421 147.426C384.206 143.933 383.599 140.199 383.599 136.226C383.599 132.28 384.206 128.573 385.421 125.107C386.636 121.613 388.356 118.573 390.579 115.987C392.828 113.374 395.53 111.32 398.684 109.827C401.838 108.307 405.341 107.547 409.193 107.547H427.691C431.517 107.547 434.994 108.307 438.122 109.827C441.251 111.32 443.926 113.374 446.15 115.987C448.399 118.573 450.131 121.613 451.346 125.107C452.561 128.573 453.169 132.28 453.169 136.226ZM445.219 136.226C445.219 133.4 444.818 130.746 444.017 128.266C443.215 125.787 442.052 123.627 440.527 121.787C439.027 119.92 437.192 118.453 435.02 117.387C432.874 116.293 430.431 115.747 427.691 115.747H409.193C406.453 115.747 403.984 116.293 401.786 117.387C399.615 118.453 397.766 119.92 396.241 121.787C394.741 123.627 393.578 125.787 392.751 128.266C391.949 130.746 391.548 133.4 391.548 136.226C391.548 139.053 391.949 141.719 392.751 144.226C393.578 146.706 394.741 148.879 396.241 150.746C397.766 152.586 399.615 154.039 401.786 155.106C403.984 156.172 406.453 156.706 409.193 156.706H427.691C430.431 156.706 432.874 156.172 435.02 155.106C437.192 154.039 439.027 152.586 440.527 150.746C442.052 148.879 443.215 146.706 444.017 144.226C444.818 141.719 445.219 139.053 445.219 136.226Z" fill="black"/>
</mask>
<g mask="url(#mask1_2005_29)">
<path d="M102.984 164.905H95.035V115.747H66.92V107.547H131.099V115.747H102.984V164.905Z" stroke="white" stroke-width="2.7381"/>
</g>
<mask id="mask2_2005_29" style="mask-type:luminance" maskUnits="userSpaceOnUse" x="-2" y="105" width="457" height="62">
<path d="M455 105.547H-2V166.547H455V105.547Z" fill="white"/>
<path d="M57.51 164.905H0V107.547H57.51V115.747H7.95V156.706H57.51V164.905ZM50.763 140.346H11.906V132.146H50.763V140.346Z" fill="black"/>
<path d="M102.984 164.905H95.035V115.747H66.92V107.547H131.099V115.747H102.984V164.905Z" fill="black"/>
<path d="M230.336 164.905H222.386V148.506H178.022V140.346H222.386V115.747H193.883C191.169 115.747 188.609 116.293 186.205 117.387C183.8 118.453 181.706 119.92 179.923 121.787C178.139 123.627 176.717 125.787 175.657 128.266C174.623 130.746 174.106 133.4 174.106 136.226V164.905H166.156V136.226C166.156 133.586 166.479 131.053 167.125 128.626C167.798 126.173 168.728 123.893 169.917 121.787C171.133 119.653 172.58 117.72 174.261 115.987C175.967 114.227 177.841 112.72 179.884 111.467C181.952 110.214 184.162 109.254 186.515 108.587C188.868 107.894 191.324 107.547 193.883 107.547H230.336V164.905Z" fill="black"/>
<path d="M303.241 107.547L303.163 136.226C303.163 138.893 302.827 141.453 302.155 143.906C301.509 146.333 300.578 148.613 299.363 150.746C298.174 152.852 296.726 154.786 295.02 156.546C293.339 158.279 291.465 159.772 289.397 161.026C287.354 162.252 285.157 163.212 282.804 163.906C280.452 164.572 277.995 164.905 275.436 164.905H269.58C267.021 164.905 264.552 164.572 262.174 163.906C259.821 163.212 257.611 162.239 255.542 160.986C253.5 159.732 251.638 158.239 249.958 156.506C248.278 154.746 246.83 152.812 245.615 150.706C244.425 148.573 243.495 146.293 242.823 143.866C242.176 141.413 241.853 138.866 241.853 136.226V107.547H249.803V136.226C249.803 139.053 250.32 141.719 251.354 144.226C252.388 146.706 253.797 148.879 255.581 150.746C257.391 152.586 259.498 154.039 261.902 155.106C264.306 156.172 266.866 156.706 269.58 156.706H275.436C278.176 156.706 280.749 156.172 283.153 155.106C285.557 154.039 287.652 152.586 289.435 150.746C291.219 148.879 292.628 146.706 293.662 144.226C294.696 141.719 295.214 139.053 295.214 136.226V107.547H303.241Z" fill="black"/>
<path d="M348.5 164.905H340.55V115.747H312.435V107.547H376.615V115.747H348.5V164.905Z" fill="black"/>
<path d="M453.169 136.226C453.169 140.199 452.561 143.933 451.346 147.426C450.131 150.919 448.399 153.959 446.15 156.546C443.926 159.132 441.251 161.172 438.122 162.666C434.994 164.159 431.517 164.905 427.691 164.905H409.193C405.341 164.905 401.838 164.159 398.684 162.666C395.53 161.172 392.828 159.132 390.579 156.546C388.356 153.959 386.636 150.919 385.421 147.426C384.206 143.933 383.599 140.199 383.599 136.226C383.599 132.28 384.206 128.573 385.421 125.107C386.636 121.613 388.356 118.573 390.579 115.987C392.828 113.374 395.53 111.32 398.684 109.827C401.838 108.307 405.341 107.547 409.193 107.547H427.691C431.517 107.547 434.994 108.307 438.122 109.827C441.251 111.32 443.926 113.374 446.15 115.987C448.399 118.573 450.131 121.613 451.346 125.107C452.561 128.573 453.169 132.28 453.169 136.226ZM445.219 136.226C445.219 133.4 444.818 130.746 444.017 128.266C443.215 125.787 442.052 123.627 440.527 121.787C439.027 119.92 437.192 118.453 435.02 117.387C432.874 116.293 430.431 115.747 427.691 115.747H409.193C406.453 115.747 403.984 116.293 401.786 117.387C399.615 118.453 397.766 119.92 396.241 121.787C394.741 123.627 393.578 125.787 392.751 128.266C391.949 130.746 391.548 133.4 391.548 136.226C391.548 139.053 391.949 141.719 392.751 144.226C393.578 146.706 394.741 148.879 396.241 150.746C397.766 152.586 399.615 154.039 401.786 155.106C403.984 156.172 406.453 156.706 409.193 156.706H427.691C430.431 156.706 432.874 156.172 435.02 155.106C437.192 154.039 439.027 152.586 440.527 150.746C442.052 148.879 443.215 146.706 444.017 144.226C444.818 141.719 445.219 139.053 445.219 136.226Z" fill="black"/>
</mask>
<g mask="url(#mask2_2005_29)">
<path d="M230.336 164.905H222.386V148.506H178.022V140.346H222.386V115.747H193.883C191.169 115.747 188.609 116.293 186.205 117.387C183.8 118.453 181.706 119.92 179.923 121.787C178.139 123.627 176.717 125.787 175.657 128.266C174.623 130.746 174.106 133.4 174.106 136.226V164.905H166.156V136.226C166.156 133.586 166.479 131.053 167.125 128.626C167.798 126.173 168.728 123.893 169.917 121.787C171.133 119.653 172.58 117.72 174.261 115.987C175.967 114.227 177.841 112.72 179.884 111.467C181.952 110.214 184.162 109.254 186.515 108.587C188.868 107.894 191.324 107.547 193.883 107.547H230.336V164.905Z" stroke="white" stroke-width="2.7381"/>
</g>
<mask id="mask3_2005_29" style="mask-type:luminance" maskUnits="userSpaceOnUse" x="-2" y="105" width="457" height="62">
<path d="M455 105.547H-2V166.547H455V105.547Z" fill="white"/>
<path d="M57.51 164.905H0V107.547H57.51V115.747H7.95V156.706H57.51V164.905ZM50.763 140.346H11.906V132.146H50.763V140.346Z" fill="black"/>
<path d="M102.984 164.905H95.035V115.747H66.92V107.547H131.099V115.747H102.984V164.905Z" fill="black"/>
<path d="M230.336 164.905H222.386V148.506H178.022V140.346H222.386V115.747H193.883C191.169 115.747 188.609 116.293 186.205 117.387C183.8 118.453 181.706 119.92 179.923 121.787C178.139 123.627 176.717 125.787 175.657 128.266C174.623 130.746 174.106 133.4 174.106 136.226V164.905H166.156V136.226C166.156 133.586 166.479 131.053 167.125 128.626C167.798 126.173 168.728 123.893 169.917 121.787C171.133 119.653 172.58 117.72 174.261 115.987C175.967 114.227 177.841 112.72 179.884 111.467C181.952 110.214 184.162 109.254 186.515 108.587C188.868 107.894 191.324 107.547 193.883 107.547H230.336V164.905Z" fill="black"/>
<path d="M303.241 107.547L303.163 136.226C303.163 138.893 302.827 141.453 302.155 143.906C301.509 146.333 300.578 148.613 299.363 150.746C298.174 152.852 296.726 154.786 295.02 156.546C293.339 158.279 291.465 159.772 289.397 161.026C287.354 162.252 285.157 163.212 282.804 163.906C280.452 164.572 277.995 164.905 275.436 164.905H269.58C267.021 164.905 264.552 164.572 262.174 163.906C259.821 163.212 257.611 162.239 255.542 160.986C253.5 159.732 251.638 158.239 249.958 156.506C248.278 154.746 246.83 152.812 245.615 150.706C244.425 148.573 243.495 146.293 242.823 143.866C242.176 141.413 241.853 138.866 241.853 136.226V107.547H249.803V136.226C249.803 139.053 250.32 141.719 251.354 144.226C252.388 146.706 253.797 148.879 255.581 150.746C257.391 152.586 259.498 154.039 261.902 155.106C264.306 156.172 266.866 156.706 269.58 156.706H275.436C278.176 156.706 280.749 156.172 283.153 155.106C285.557 154.039 287.652 152.586 289.435 150.746C291.219 148.879 292.628 146.706 293.662 144.226C294.696 141.719 295.214 139.053 295.214 136.226V107.547H303.241Z" fill="black"/>
<path d="M348.5 164.905H340.55V115.747H312.435V107.547H376.615V115.747H348.5V164.905Z" fill="black"/>
<path d="M453.169 136.226C453.169 140.199 452.561 143.933 451.346 147.426C450.131 150.919 448.399 153.959 446.15 156.546C443.926 159.132 441.251 161.172 438.122 162.666C434.994 164.159 431.517 164.905 427.691 164.905H409.193C405.341 164.905 401.838 164.159 398.684 162.666C395.53 161.172 392.828 159.132 390.579 156.546C388.356 153.959 386.636 150.919 385.421 147.426C384.206 143.933 383.599 140.199 383.599 136.226C383.599 132.28 384.206 128.573 385.421 125.107C386.636 121.613 388.356 118.573 390.579 115.987C392.828 113.374 395.53 111.32 398.684 109.827C401.838 108.307 405.341 107.547 409.193 107.547H427.691C431.517 107.547 434.994 108.307 438.122 109.827C441.251 111.32 443.926 113.374 446.15 115.987C448.399 118.573 450.131 121.613 451.346 125.107C452.561 128.573 453.169 132.28 453.169 136.226ZM445.219 136.226C445.219 133.4 444.818 130.746 444.017 128.266C443.215 125.787 442.052 123.627 440.527 121.787C439.027 119.92 437.192 118.453 435.02 117.387C432.874 116.293 430.431 115.747 427.691 115.747H409.193C406.453 115.747 403.984 116.293 401.786 117.387C399.615 118.453 397.766 119.92 396.241 121.787C394.741 123.627 393.578 125.787 392.751 128.266C391.949 130.746 391.548 133.4 391.548 136.226C391.548 139.053 391.949 141.719 392.751 144.226C393.578 146.706 394.741 148.879 396.241 150.746C397.766 152.586 399.615 154.039 401.786 155.106C403.984 156.172 406.453 156.706 409.193 156.706H427.691C430.431 156.706 432.874 156.172 435.02 155.106C437.192 154.039 439.027 152.586 440.527 150.746C442.052 148.879 443.215 146.706 444.017 144.226C444.818 141.719 445.219 139.053 445.219 136.226Z" fill="black"/>
</mask>
<g mask="url(#mask3_2005_29)">
<path d="M303.241 107.547L303.163 136.226C303.163 138.893 302.827 141.453 302.155 143.906C301.509 146.333 300.578 148.613 299.363 150.746C298.174 152.852 296.726 154.786 295.02 156.546C293.339 158.279 291.465 159.772 289.397 161.026C287.354 162.252 285.157 163.212 282.804 163.906C280.452 164.572 277.995 164.905 275.436 164.905H269.58C267.021 164.905 264.552 164.572 262.174 163.906C259.821 163.212 257.611 162.239 255.542 160.986C253.5 159.732 251.638 158.239 249.958 156.506C248.278 154.746 246.83 152.812 245.615 150.706C244.425 148.573 243.495 146.293 242.823 143.866C242.176 141.413 241.853 138.866 241.853 136.226V107.547H249.803V136.226C249.803 139.053 250.32 141.719 251.354 144.226C252.388 146.706 253.797 148.879 255.581 150.746C257.391 152.586 259.498 154.039 261.902 155.106C264.306 156.172 266.866 156.706 269.58 156.706H275.436C278.176 156.706 280.749 156.172 283.153 155.106C285.557 154.039 287.652 152.586 289.435 150.746C291.219 148.879 292.628 146.706 293.662 144.226C294.696 141.719 295.214 139.053 295.214 136.226V107.547H303.241Z" stroke="white" stroke-width="2.7381"/>
</g>
<mask id="mask4_2005_29" style="mask-type:luminance" maskUnits="userSpaceOnUse" x="-2" y="105" width="457" height="62">
<path d="M455 105.547H-2V166.547H455V105.547Z" fill="white"/>
<path d="M57.51 164.905H0V107.547H57.51V115.747H7.95V156.706H57.51V164.905ZM50.763 140.346H11.906V132.146H50.763V140.346Z" fill="black"/>
<path d="M102.984 164.905H95.035V115.747H66.92V107.547H131.099V115.747H102.984V164.905Z" fill="black"/>
<path d="M230.336 164.905H222.386V148.506H178.022V140.346H222.386V115.747H193.883C191.169 115.747 188.609 116.293 186.205 117.387C183.8 118.453 181.706 119.92 179.923 121.787C178.139 123.627 176.717 125.787 175.657 128.266C174.623 130.746 174.106 133.4 174.106 136.226V164.905H166.156V136.226C166.156 133.586 166.479 131.053 167.125 128.626C167.798 126.173 168.728 123.893 169.917 121.787C171.133 119.653 172.58 117.72 174.261 115.987C175.967 114.227 177.841 112.72 179.884 111.467C181.952 110.214 184.162 109.254 186.515 108.587C188.868 107.894 191.324 107.547 193.883 107.547H230.336V164.905Z" fill="black"/>
<path d="M303.241 107.547L303.163 136.226C303.163 138.893 302.827 141.453 302.155 143.906C301.509 146.333 300.578 148.613 299.363 150.746C298.174 152.852 296.726 154.786 295.02 156.546C293.339 158.279 291.465 159.772 289.397 161.026C287.354 162.252 285.157 163.212 282.804 163.906C280.452 164.572 277.995 164.905 275.436 164.905H269.58C267.021 164.905 264.552 164.572 262.174 163.906C259.821 163.212 257.611 162.239 255.542 160.986C253.5 159.732 251.638 158.239 249.958 156.506C248.278 154.746 246.83 152.812 245.615 150.706C244.425 148.573 243.495 146.293 242.823 143.866C242.176 141.413 241.853 138.866 241.853 136.226V107.547H249.803V136.226C249.803 139.053 250.32 141.719 251.354 144.226C252.388 146.706 253.797 148.879 255.581 150.746C257.391 152.586 259.498 154.039 261.902 155.106C264.306 156.172 266.866 156.706 269.58 156.706H275.436C278.176 156.706 280.749 156.172 283.153 155.106C285.557 154.039 287.652 152.586 289.435 150.746C291.219 148.879 292.628 146.706 293.662 144.226C294.696 141.719 295.214 139.053 295.214 136.226V107.547H303.241Z" fill="black"/>
<path d="M348.5 164.905H340.55V115.747H312.435V107.547H376.615V115.747H348.5V164.905Z" fill="black"/>
<path d="M453.169 136.226C453.169 140.199 452.561 143.933 451.346 147.426C450.131 150.919 448.399 153.959 446.15 156.546C443.926 159.132 441.251 161.172 438.122 162.666C434.994 164.159 431.517 164.905 427.691 164.905H409.193C405.341 164.905 401.838 164.159 398.684 162.666C395.53 161.172 392.828 159.132 390.579 156.546C388.356 153.959 386.636 150.919 385.421 147.426C384.206 143.933 383.599 140.199 383.599 136.226C383.599 132.28 384.206 128.573 385.421 125.107C386.636 121.613 388.356 118.573 390.579 115.987C392.828 113.374 395.53 111.32 398.684 109.827C401.838 108.307 405.341 107.547 409.193 107.547H427.691C431.517 107.547 434.994 108.307 438.122 109.827C441.251 111.32 443.926 113.374 446.15 115.987C448.399 118.573 450.131 121.613 451.346 125.107C452.561 128.573 453.169 132.28 453.169 136.226ZM445.219 136.226C445.219 133.4 444.818 130.746 444.017 128.266C443.215 125.787 442.052 123.627 440.527 121.787C439.027 119.92 437.192 118.453 435.02 117.387C432.874 116.293 430.431 115.747 427.691 115.747H409.193C406.453 115.747 403.984 116.293 401.786 117.387C399.615 118.453 397.766 119.92 396.241 121.787C394.741 123.627 393.578 125.787 392.751 128.266C391.949 130.746 391.548 133.4 391.548 136.226C391.548 139.053 391.949 141.719 392.751 144.226C393.578 146.706 394.741 148.879 396.241 150.746C397.766 152.586 399.615 154.039 401.786 155.106C403.984 156.172 406.453 156.706 409.193 156.706H427.691C430.431 156.706 432.874 156.172 435.02 155.106C437.192 154.039 439.027 152.586 440.527 150.746C442.052 148.879 443.215 146.706 444.017 144.226C444.818 141.719 445.219 139.053 445.219 136.226Z" fill="black"/>
</mask>
<g mask="url(#mask4_2005_29)">
<path d="M348.5 164.905H340.55V115.747H312.435V107.547H376.615V115.747H348.5V164.905Z" stroke="white" stroke-width="2.7381"/>
</g>
<mask id="mask5_2005_29" style="mask-type:luminance" maskUnits="userSpaceOnUse" x="-2" y="105" width="457" height="62">
<path d="M455 105.547H-2V166.547H455V105.547Z" fill="white"/>
<path d="M57.51 164.905H0V107.547H57.51V115.747H7.95V156.706H57.51V164.905ZM50.763 140.346H11.906V132.146H50.763V140.346Z" fill="black"/>
<path d="M102.984 164.905H95.035V115.747H66.92V107.547H131.099V115.747H102.984V164.905Z" fill="black"/>
<path d="M230.336 164.905H222.386V148.506H178.022V140.346H222.386V115.747H193.883C191.169 115.747 188.609 116.293 186.205 117.387C183.8 118.453 181.706 119.92 179.923 121.787C178.139 123.627 176.717 125.787 175.657 128.266C174.623 130.746 174.106 133.4 174.106 136.226V164.905H166.156V136.226C166.156 133.586 166.479 131.053 167.125 128.626C167.798 126.173 168.728 123.893 169.917 121.787C171.133 119.653 172.58 117.72 174.261 115.987C175.967 114.227 177.841 112.72 179.884 111.467C181.952 110.214 184.162 109.254 186.515 108.587C188.868 107.894 191.324 107.547 193.883 107.547H230.336V164.905Z" fill="black"/>
<path d="M303.241 107.547L303.163 136.226C303.163 138.893 302.827 141.453 302.155 143.906C301.509 146.333 300.578 148.613 299.363 150.746C298.174 152.852 296.726 154.786 295.02 156.546C293.339 158.279 291.465 159.772 289.397 161.026C287.354 162.252 285.157 163.212 282.804 163.906C280.452 164.572 277.995 164.905 275.436 164.905H269.58C267.021 164.905 264.552 164.572 262.174 163.906C259.821 163.212 257.611 162.239 255.542 160.986C253.5 159.732 251.638 158.239 249.958 156.506C248.278 154.746 246.83 152.812 245.615 150.706C244.425 148.573 243.495 146.293 242.823 143.866C242.176 141.413 241.853 138.866 241.853 136.226V107.547H249.803V136.226C249.803 139.053 250.32 141.719 251.354 144.226C252.388 146.706 253.797 148.879 255.581 150.746C257.391 152.586 259.498 154.039 261.902 155.106C264.306 156.172 266.866 156.706 269.58 156.706H275.436C278.176 156.706 280.749 156.172 283.153 155.106C285.557 154.039 287.652 152.586 289.435 150.746C291.219 148.879 292.628 146.706 293.662 144.226C294.696 141.719 295.214 139.053 295.214 136.226V107.547H303.241Z" fill="black"/>
<path d="M348.5 164.905H340.55V115.747H312.435V107.547H376.615V115.747H348.5V164.905Z" fill="black"/>
<path d="M453.169 136.226C453.169 140.199 452.561 143.933 451.346 147.426C450.131 150.919 448.399 153.959 446.15 156.546C443.926 159.132 441.251 161.172 438.122 162.666C434.994 164.159 431.517 164.905 427.691 164.905H409.193C405.341 164.905 401.838 164.159 398.684 162.666C395.53 161.172 392.828 159.132 390.579 156.546C388.356 153.959 386.636 150.919 385.421 147.426C384.206 143.933 383.599 140.199 383.599 136.226C383.599 132.28 384.206 128.573 385.421 125.107C386.636 121.613 388.356 118.573 390.579 115.987C392.828 113.374 395.53 111.32 398.684 109.827C401.838 108.307 405.341 107.547 409.193 107.547H427.691C431.517 107.547 434.994 108.307 438.122 109.827C441.251 111.32 443.926 113.374 446.15 115.987C448.399 118.573 450.131 121.613 451.346 125.107C452.561 128.573 453.169 132.28 453.169 136.226ZM445.219 136.226C445.219 133.4 444.818 130.746 444.017 128.266C443.215 125.787 442.052 123.627 440.527 121.787C439.027 119.92 437.192 118.453 435.02 117.387C432.874 116.293 430.431 115.747 427.691 115.747H409.193C406.453 115.747 403.984 116.293 401.786 117.387C399.615 118.453 397.766 119.92 396.241 121.787C394.741 123.627 393.578 125.787 392.751 128.266C391.949 130.746 391.548 133.4 391.548 136.226C391.548 139.053 391.949 141.719 392.751 144.226C393.578 146.706 394.741 148.879 396.241 150.746C397.766 152.586 399.615 154.039 401.786 155.106C403.984 156.172 406.453 156.706 409.193 156.706H427.691C430.431 156.706 432.874 156.172 435.02 155.106C437.192 154.039 439.027 152.586 440.527 150.746C442.052 148.879 443.215 146.706 444.017 144.226C444.818 141.719 445.219 139.053 445.219 136.226Z" fill="black"/>
</mask>
<g mask="url(#mask5_2005_29)">
<path d="M453.169 136.226C453.169 140.199 452.561 143.933 451.346 147.426C450.131 150.919 448.399 153.959 446.15 156.546C443.926 159.132 441.251 161.172 438.122 162.666C434.994 164.159 431.517 164.905 427.691 164.905H409.193C405.341 164.905 401.838 164.159 398.684 162.666C395.53 161.172 392.828 159.132 390.579 156.546C388.356 153.959 386.636 150.919 385.421 147.426C384.206 143.933 383.599 140.199 383.599 136.226C383.599 132.28 384.206 128.573 385.421 125.107C386.636 121.613 388.356 118.573 390.579 115.987C392.828 113.374 395.53 111.32 398.684 109.827C401.838 108.307 405.341 107.547 409.193 107.547H427.691C431.517 107.547 434.994 108.307 438.122 109.827C441.251 111.32 443.926 113.374 446.15 115.987C448.399 118.573 450.131 121.613 451.346 125.107C452.561 128.573 453.169 132.28 453.169 136.226ZM445.219 136.226C445.219 133.4 444.818 130.746 444.017 128.266C443.215 125.787 442.052 123.627 440.527 121.787C439.027 119.92 437.192 118.453 435.02 117.387C432.874 116.293 430.431 115.747 427.691 115.747H409.193C406.453 115.747 403.984 116.293 401.786 117.387C399.615 118.453 397.766 119.92 396.241 121.787C394.741 123.627 393.578 125.787 392.751 128.266C391.949 130.746 391.548 133.4 391.548 136.226C391.548 139.053 391.949 141.719 392.751 144.226C393.578 146.706 394.741 148.879 396.241 150.746C397.766 152.586 399.615 154.039 401.786 155.106C403.984 156.172 406.453 156.706 409.193 156.706H427.691C430.431 156.706 432.874 156.172 435.02 155.106C437.192 154.039 439.027 152.586 440.527 150.746C442.052 148.879 443.215 146.706 444.017 144.226C444.818 141.719 445.219 139.053 445.219 136.226Z" stroke="white" stroke-width="2.7381"/>
</g>
<path d="M176.363 211.837C176.363 212.757 176.192 213.618 175.85 214.42C175.508 215.212 175.037 215.907 174.438 216.506C173.85 217.094 173.155 217.559 172.353 217.902C171.561 218.244 170.711 218.415 169.802 218.415H149.811V215.126H169.802C170.262 215.126 170.689 215.041 171.085 214.869C171.481 214.698 171.823 214.463 172.112 214.164C172.411 213.864 172.647 213.516 172.818 213.121C172.989 212.714 173.075 212.286 173.075 211.837C173.075 211.388 172.989 210.966 172.818 210.57C172.647 210.174 172.411 209.826 172.112 209.527C171.823 209.227 171.481 208.992 171.085 208.821C170.689 208.65 170.262 208.564 169.802 208.564H156.389C155.491 208.564 154.64 208.393 153.838 208.051C153.036 207.709 152.336 207.243 151.737 206.655C151.148 206.056 150.678 205.356 150.325 204.553C149.983 203.751 149.811 202.896 149.811 201.986C149.811 201.088 149.983 200.238 150.325 199.436C150.678 198.633 151.148 197.938 151.737 197.35C152.336 196.751 153.036 196.28 153.838 195.938C154.64 195.585 155.491 195.409 156.389 195.409H174.727V198.698H156.389C155.94 198.698 155.512 198.783 155.106 198.954C154.71 199.125 154.362 199.361 154.063 199.66C153.763 199.96 153.528 200.313 153.357 200.719C153.186 201.115 153.1 201.537 153.1 201.986C153.1 202.436 153.186 202.864 153.357 203.27C153.528 203.666 153.763 204.013 154.063 204.313C154.362 204.612 154.71 204.848 155.106 205.019C155.512 205.19 155.94 205.275 156.389 205.275H169.802C170.711 205.275 171.561 205.452 172.353 205.805C173.155 206.147 173.85 206.618 174.438 207.217C175.037 207.805 175.508 208.5 175.85 209.302C176.192 210.094 176.363 210.939 176.363 211.837ZM159.085 188.911L163.079 190.981L167.09 188.911L168.181 190.515L163.079 193.933L157.994 190.515L159.085 188.911ZM205.611 195.409L193.514 218.415H189.76L177.679 195.409H181.417L191.637 214.869L201.857 195.409H205.611ZM234.008 218.415H230.719V211.837H212.365V208.564H230.719V198.698H218.927C217.804 198.698 216.745 198.917 215.75 199.355C214.756 199.783 213.889 200.371 213.151 201.12C212.413 201.858 211.825 202.724 211.387 203.719C210.959 204.714 210.745 205.778 210.745 206.912V218.415H207.456V206.912C207.456 205.853 207.59 204.837 207.857 203.864C208.135 202.88 208.52 201.965 209.012 201.12C209.515 200.264 210.114 199.489 210.809 198.794C211.515 198.088 212.29 197.484 213.135 196.981C213.991 196.478 214.905 196.093 215.879 195.826C216.852 195.548 217.868 195.409 218.927 195.409H234.008V218.415ZM266.079 218.415H261.635L254.736 211.837H244.661V208.596H257.865C258.549 208.596 259.191 208.468 259.79 208.211C260.389 207.944 260.908 207.586 261.346 207.136C261.795 206.687 262.148 206.163 262.405 205.564C262.662 204.955 262.79 204.307 262.79 203.623C262.79 202.938 262.662 202.297 262.405 201.698C262.148 201.099 261.795 200.58 261.346 200.141C260.908 199.692 260.389 199.339 259.79 199.083C259.191 198.826 258.549 198.698 257.865 198.698H242.816V218.415H239.527V195.409H257.865C258.998 195.409 260.063 195.628 261.057 196.066C262.052 196.494 262.918 197.083 263.656 197.831C264.405 198.569 264.993 199.436 265.421 200.43C265.86 201.425 266.079 202.489 266.079 203.623C266.079 204.65 265.903 205.623 265.55 206.543C265.197 207.452 264.71 208.27 264.09 208.998C263.469 209.714 262.737 210.313 261.892 210.794C261.057 211.265 260.154 211.581 259.18 211.741L266.079 218.415ZM296.45 218.415H293.161V211.837H274.807V208.564H293.161V198.698H281.369C280.246 198.698 279.187 198.917 278.192 199.355C277.197 199.783 276.331 200.371 275.593 201.12C274.855 201.858 274.267 202.724 273.828 203.719C273.4 204.714 273.186 205.778 273.186 206.912V218.415H269.897V206.912C269.897 205.853 270.031 204.837 270.299 203.864C270.577 202.88 270.962 201.965 271.454 201.12C271.956 200.264 272.555 199.489 273.251 198.794C273.956 198.088 274.732 197.484 275.577 196.981C276.432 196.478 277.347 196.093 278.32 195.826C279.294 195.548 280.31 195.409 281.369 195.409H296.45V218.415Z" fill="white"/>
</g>
<defs>
<linearGradient id="paint0_linear_2005_29" x1="331.377" y1="57.809" x2="15.87" y2="69.957" gradientUnits="userSpaceOnUse">
<stop stop-color="#FF0000"/>
<stop offset="1" stop-color="#FF7474"/>
</linearGradient>
<linearGradient id="paint1_linear_2005_29" x1="444.325" y1="39.161" x2="182.97" y2="-0.0870029" gradientUnits="userSpaceOnUse">
<stop stop-color="#FF0000"/>
<stop offset="1" stop-color="#FF4F4F"/>
</linearGradient>
<linearGradient id="paint2_linear_2005_29" x1="440.998" y1="61.622" x2="303.784" y2="78.443" gradientUnits="userSpaceOnUse">
<stop stop-color="#FF0000"/>
<stop offset="1" stop-color="#FF5B5B"/>
</linearGradient>
<clipPath id="clip0_2005_29">
<rect width="455" height="218" fill="white"/>
</clipPath>
</defs>
</svg>
